<svg width="26" height="26" viewBox="0 0 26 26" fill="none" xmlns="http://www.w3.org/2000/svg">
<rect width="26" height="26" rx="13" fill="#FAFAFA"/>
<path d="M7.796 10.22V11.924H10.544V13.508H7.796V15.356H10.904V17H5.744V8.576H10.904V10.22H7.796Z" fill="#8E96F4"/>
<path d="M16.5322 17L14.7802 13.82H14.2882V17H12.2362V8.576H15.6802C16.3442 8.576 16.9082 8.692 17.3722 8.924C17.8442 9.156 18.1962 9.476 18.4282 9.884C18.6602 10.284 18.7762 10.732 18.7762 11.228C18.7762 11.788 18.6162 12.288 18.2962 12.728C17.9842 13.168 17.5202 13.48 16.9042 13.664L18.8482 17H16.5322ZM14.2882 12.368H15.5602C15.9362 12.368 16.2162 12.276 16.4002 12.092C16.5922 11.908 16.6882 11.648 16.6882 11.312C16.6882 10.992 16.5922 10.74 16.4002 10.556C16.2162 10.372 15.9362 10.28 15.5602 10.28H14.2882V12.368Z" fill="black"/>
<path d="M21.0243 17.096C20.6643 17.096 20.3683 16.992 20.1363 16.784C19.9123 16.568 19.8003 16.304 19.8003 15.992C19.8003 15.672 19.9123 15.404 20.1363 15.188C20.3683 14.972 20.6643 14.864 21.0243 14.864C21.3763 14.864 21.6643 14.972 21.8883 15.188C22.1203 15.404 22.2363 15.672 22.2363 15.992C22.2363 16.304 22.1203 16.568 21.8883 16.784C21.6643 16.992 21.3763 17.096 21.0243 17.096Z" fill="#8467DC"/>
</svg>
