<svg width="62" height="10" viewBox="0 0 62 10" fill="none" xmlns="http://www.w3.org/2000/svg">
    <path
        d="M2.796 2.22V3.924H5.544V5.508H2.796V7.356H5.904V9H0.744V0.576H5.904V2.22H2.796ZM6.82819 5.64C6.82819 4.952 6.95619 4.348 7.21219 3.828C7.47619 3.308 7.83219 2.908 8.28019 2.628C8.72819 2.348 9.22819 2.208 9.78019 2.208C10.2202 2.208 10.6202 2.3 10.9802 2.484C11.3482 2.668 11.6362 2.916 11.8442 3.228V0.12H13.8962V9H11.8442V8.04C11.6522 8.36 11.3762 8.616 11.0162 8.808C10.6642 9 10.2522 9.096 9.78019 9.096C9.22819 9.096 8.72819 8.956 8.28019 8.676C7.83219 8.388 7.47619 7.984 7.21219 7.464C6.95619 6.936 6.82819 6.328 6.82819 5.64ZM11.8442 5.652C11.8442 5.14 11.7002 4.736 11.4122 4.44C11.1322 4.144 10.7882 3.996 10.3802 3.996C9.97219 3.996 9.62419 4.144 9.33619 4.44C9.05619 4.728 8.91619 5.128 8.91619 5.64C8.91619 6.152 9.05619 6.56 9.33619 6.864C9.62419 7.16 9.97219 7.308 10.3802 7.308C10.7882 7.308 11.1322 7.16 11.4122 6.864C11.7002 6.568 11.8442 6.164 11.8442 5.652ZM21.9927 2.304V9H19.9407V8.088C19.7327 8.384 19.4487 8.624 19.0887 8.808C18.7367 8.984 18.3447 9.072 17.9127 9.072C17.4007 9.072 16.9487 8.96 16.5567 8.736C16.1647 8.504 15.8607 8.172 15.6447 7.74C15.4287 7.308 15.3207 6.8 15.3207 6.216V2.304H17.3607V5.94C17.3607 6.388 17.4767 6.736 17.7087 6.984C17.9407 7.232 18.2527 7.356 18.6447 7.356C19.0447 7.356 19.3607 7.232 19.5927 6.984C19.8247 6.736 19.9407 6.388 19.9407 5.94V2.304H21.9927Z"
        fill="#8E96F4" />
    <path
        d="M27.7627 9L26.0107 5.82H25.5187V9H23.4667V0.576H26.9107C27.5747 0.576 28.1387 0.692 28.6027 0.924C29.0747 1.156 29.4267 1.476 29.6587 1.884C29.8907 2.284 30.0067 2.732 30.0067 3.228C30.0067 3.788 29.8467 4.288 29.5267 4.728C29.2147 5.168 28.7507 5.48 28.1347 5.664L30.0787 9H27.7627ZM25.5187 4.368H26.7907C27.1667 4.368 27.4467 4.276 27.6307 4.092C27.8227 3.908 27.9187 3.648 27.9187 3.312C27.9187 2.992 27.8227 2.74 27.6307 2.556C27.4467 2.372 27.1667 2.28 26.7907 2.28H25.5187V4.368ZM34.3428 9.096C33.6868 9.096 33.0948 8.956 32.5668 8.676C32.0468 8.396 31.6348 7.996 31.3308 7.476C31.0348 6.956 30.8868 6.348 30.8868 5.652C30.8868 4.964 31.0388 4.36 31.3428 3.84C31.6468 3.312 32.0628 2.908 32.5908 2.628C33.1188 2.348 33.7108 2.208 34.3668 2.208C35.0228 2.208 35.6148 2.348 36.1428 2.628C36.6708 2.908 37.0868 3.312 37.3908 3.84C37.6948 4.36 37.8468 4.964 37.8468 5.652C37.8468 6.34 37.6908 6.948 37.3788 7.476C37.0748 7.996 36.6548 8.396 36.1188 8.676C35.5908 8.956 34.9988 9.096 34.3428 9.096ZM34.3428 7.32C34.7348 7.32 35.0668 7.176 35.3388 6.888C35.6188 6.6 35.7588 6.188 35.7588 5.652C35.7588 5.116 35.6228 4.704 35.3508 4.416C35.0868 4.128 34.7588 3.984 34.3668 3.984C33.9668 3.984 33.6348 4.128 33.3708 4.416C33.1068 4.696 32.9748 5.108 32.9748 5.652C32.9748 6.188 33.1028 6.6 33.3588 6.888C33.6228 7.176 33.9508 7.32 34.3428 7.32ZM41.9834 9.096C41.3274 9.096 40.7354 8.956 40.2074 8.676C39.6874 8.396 39.2754 7.996 38.9714 7.476C38.6754 6.956 38.5274 6.348 38.5274 5.652C38.5274 4.964 38.6794 4.36 38.9834 3.84C39.2874 3.312 39.7034 2.908 40.2314 2.628C40.7594 2.348 41.3514 2.208 42.0074 2.208C42.6634 2.208 43.2554 2.348 43.7834 2.628C44.3114 2.908 44.7274 3.312 45.0314 3.84C45.3354 4.36 45.4874 4.964 45.4874 5.652C45.4874 6.34 45.3314 6.948 45.0194 7.476C44.7154 7.996 44.2954 8.396 43.7594 8.676C43.2314 8.956 42.6394 9.096 41.9834 9.096ZM41.9834 7.32C42.3754 7.32 42.7074 7.176 42.9794 6.888C43.2594 6.6 43.3994 6.188 43.3994 5.652C43.3994 5.116 43.2634 4.704 42.9914 4.416C42.7274 4.128 42.3994 3.984 42.0074 3.984C41.6074 3.984 41.2754 4.128 41.0114 4.416C40.7474 4.696 40.6154 5.108 40.6154 5.652C40.6154 6.188 40.7434 6.6 40.9994 6.888C41.2634 7.176 41.5914 7.32 41.9834 7.32ZM55.12 2.232C55.952 2.232 56.612 2.484 57.1 2.988C57.596 3.492 57.844 4.192 57.844 5.088V9H55.804V5.364C55.804 4.932 55.688 4.6 55.456 4.368C55.232 4.128 54.92 4.008 54.52 4.008C54.12 4.008 53.804 4.128 53.572 4.368C53.348 4.6 53.236 4.932 53.236 5.364V9H51.196V5.364C51.196 4.932 51.08 4.6 50.848 4.368C50.624 4.128 50.312 4.008 49.912 4.008C49.512 4.008 49.196 4.128 48.964 4.368C48.74 4.6 48.628 4.932 48.628 5.364V9H46.576V2.304H48.628V3.144C48.836 2.864 49.108 2.644 49.444 2.484C49.78 2.316 50.16 2.232 50.584 2.232C51.088 2.232 51.536 2.34 51.928 2.556C52.328 2.772 52.64 3.08 52.864 3.48C53.096 3.112 53.412 2.812 53.812 2.58C54.212 2.348 54.648 2.232 55.12 2.232Z"
        fill="black" />
    <path
        d="M60.2392 9.096C59.8792 9.096 59.5832 8.992 59.3512 8.784C59.1272 8.568 59.0152 8.304 59.0152 7.992C59.0152 7.672 59.1272 7.404 59.3512 7.188C59.5832 6.972 59.8792 6.864 60.2392 6.864C60.5912 6.864 60.8792 6.972 61.1032 7.188C61.3352 7.404 61.4512 7.672 61.4512 7.992C61.4512 8.304 61.3352 8.568 61.1032 8.784C60.8792 8.992 60.5912 9.096 60.2392 9.096Z"
        fill="#8467DC" />
</svg>